<svg width="24" height="24" viewBox="0 0 24 24" fill="none" xmlns="http://www.w3.org/2000/svg">
<g clip-path="url(#clip0_80_6872)">
<path d="M12 3C12.2652 3 12.5196 3.10536 12.7071 3.29289C12.8946 3.48043 13 3.73478 13 4V5H14.5C16.4891 5 18.3968 5.79018 19.8033 7.1967C21.2098 8.60322 22 10.5109 22 12.5C22 14.4891 21.2098 16.3968 19.8033 17.8033C18.3968 19.2098 16.4891 20 14.5 20H9.5C7.51088 20 5.60322 19.2098 4.1967 17.8033C2.79018 16.3968 2 14.4891 2 12.5C2 10.5109 2.79018 8.60322 4.1967 7.1967C5.60322 5.79018 7.51088 5 9.5 5H11V4C11 3.73478 11.1054 3.48043 11.2929 3.29289C11.4804 3.10536 11.7348 3 12 3ZM14.5 7H9.5C8.04131 7 6.64236 7.57946 5.61091 8.61091C4.57946 9.64236 4 11.0413 4 12.5C4 13.9587 4.57946 15.3576 5.61091 16.3891C6.64236 17.4205 8.04131 18 9.5 18H14.5C15.9587 18 17.3576 17.4205 18.3891 16.3891C19.4205 15.3576 20 13.9587 20 12.5C20 11.0413 19.4205 9.64236 18.3891 8.61091C17.3576 7.57946 15.9587 7 14.5 7ZM15.5 10C15.7449 10 15.9813 10.09 16.1644 10.2527C16.3474 10.4155 16.4643 10.6397 16.493 10.883L16.5 11V11.5H17C17.2549 11.5003 17.5 11.5979 17.6854 11.7728C17.8707 11.9478 17.9822 12.187 17.9972 12.4414C18.0121 12.6958 17.9293 12.9464 17.7657 13.1418C17.6021 13.3373 17.3701 13.4629 17.117 13.493L17 13.5H16.5V14C16.4997 14.2549 16.4021 14.5 16.2272 14.6854C16.0522 14.8707 15.813 14.9822 15.5586 14.9972C15.3042 15.0121 15.0536 14.9293 14.8582 14.7657C14.6627 14.6021 14.5371 14.3701 14.507 14.117L14.5 14V13.5H14C13.7451 13.4997 13.5 13.4021 13.3146 13.2272C13.1293 13.0522 13.0178 12.813 13.0028 12.5586C12.9879 12.3042 13.0707 12.0536 13.2343 11.8582C13.3979 11.6627 13.6299 11.5371 13.883 11.507L14 11.5H14.5V11C14.5 10.7348 14.6054 10.4804 14.7929 10.2929C14.9804 10.1054 15.2348 10 15.5 10ZM8.5 10C9.16304 10 9.79893 10.2634 10.2678 10.7322C10.7366 11.2011 11 11.837 11 12.5C11 13.163 10.7366 13.7989 10.2678 14.2678C9.79893 14.7366 9.16304 15 8.5 15C7.83696 15 7.20107 14.7366 6.73223 14.2678C6.26339 13.7989 6 13.163 6 12.5C6 11.837 6.26339 11.2011 6.73223 10.7322C7.20107 10.2634 7.83696 10 8.5 10ZM8.5 12C8.36739 12 8.24021 12.0527 8.14645 12.1464C8.05268 12.2402 8 12.3674 8 12.5C8 12.6326 8.05268 12.7598 8.14645 12.8536C8.24021 12.9473 8.36739 13 8.5 13C8.63261 13 8.75979 12.9473 8.85355 12.8536C8.94732 12.7598 9 12.6326 9 12.5C9 12.3674 8.94732 12.2402 8.85355 12.1464C8.75979 12.0527 8.63261 12 8.5 12Z" fill="#FD295C"/>
</g>
<defs>
<clipPath id="clip0_80_6872">
<rect width="24" height="24" fill="white"/>
</clipPath>
</defs>
</svg>
