<svg width="56" height="73" viewBox="0 0 56 73" fill="none" xmlns="http://www.w3.org/2000/svg">
<path d="M47.7272 50.0927C46.9879 51.793 46.1127 53.3581 45.0988 54.797C43.7166 56.7586 42.585 58.1164 41.7129 58.8705C40.3609 60.1081 38.9124 60.742 37.3613 60.778C36.2477 60.778 34.9048 60.4626 33.3416 59.8227C31.7733 59.1859 30.332 58.8705 29.0142 58.8705C27.6321 58.8705 26.1497 59.1859 24.5642 59.8227C22.9763 60.4626 21.6971 60.7961 20.719 60.8291C19.2316 60.8922 17.749 60.2403 16.2691 58.8705C15.3245 58.0504 14.1431 56.6445 12.7277 54.6528C11.2092 52.526 9.96077 50.0597 8.9827 47.2479C7.93524 44.2109 7.41016 41.2699 7.41016 38.4227C7.41016 35.1612 8.11812 32.3483 9.53616 29.991C10.6506 28.0976 12.1332 26.604 13.9888 25.5075C15.8444 24.411 17.8494 23.8523 20.0086 23.8166C21.1901 23.8166 22.7394 24.1803 24.6647 24.8953C26.5846 25.6127 27.8173 25.9764 28.3578 25.9764C28.7619 25.9764 30.1314 25.5511 32.4529 24.703C34.6483 23.9166 36.5012 23.5909 38.0191 23.7192C42.1323 24.0497 45.2225 25.6637 47.2776 28.5716C43.5989 30.7904 41.7792 33.898 41.8154 37.8847C41.8486 40.9899 42.9803 43.574 45.2043 45.6258C46.2123 46.578 47.3379 47.314 48.5903 47.8367C48.3187 48.6208 48.032 49.3718 47.7272 50.0927ZM38.2938 13.1402C38.2938 15.5741 37.4005 17.8466 35.62 19.95C33.4714 22.4506 30.8725 23.8955 28.0542 23.6675C28.0165 23.3615 27.9975 23.0535 27.9975 22.7453C27.9975 20.4087 29.0193 17.9082 30.8339 15.8637C31.7398 14.8285 32.892 13.9677 34.2892 13.2811C35.6834 12.6047 37.0021 12.2307 38.2424 12.1666C38.2787 12.4919 38.2938 12.8174 38.2938 13.1402Z" fill="white"/>
</svg>
