<svg width="55" height="55" viewBox="0 0 55 55" fill="none" xmlns="http://www.w3.org/2000/svg">
<path d="M7.2646 17.05L27.5 28.7604L47.5979 17.1187" stroke="white" stroke-width="2" stroke-linecap="round" stroke-linejoin="round"/>
<path d="M27.5 49.5229V28.7375" stroke="white" stroke-width="2" stroke-linecap="round" stroke-linejoin="round"/>
<path d="M49.5229 21.0146V33.9855C49.5229 34.1001 49.5229 34.1917 49.5 34.3062C47.8958 32.9083 45.8333 32.0834 43.5417 32.0834C41.3875 32.0834 39.3937 32.8396 37.8125 34.1001C35.7042 35.773 34.375 38.3626 34.375 41.2501C34.375 42.9688 34.8562 44.5959 35.7041 45.9709C35.9104 46.3375 36.1625 46.6813 36.4375 47.0022L32.2438 49.3168C29.6313 50.7834 25.3687 50.7834 22.7562 49.3168L10.5187 42.5334C7.74582 40.998 5.47711 37.148 5.47711 33.9855V21.0146C5.47711 17.8521 7.74582 14.0021 10.5187 12.4667L22.7562 5.68334C25.3687 4.21668 29.6313 4.21668 32.2438 5.68334L44.4813 12.4667C47.2542 14.0021 49.5229 17.8521 49.5229 21.0146Z" stroke="white" stroke-width="2" stroke-linecap="round" stroke-linejoin="round"/>
<path d="M52.7083 41.25C52.7083 44 51.4938 46.4521 49.5917 48.125C47.9646 49.5458 45.8563 50.4167 43.5417 50.4167C38.4771 50.4167 34.375 46.3146 34.375 41.25C34.375 38.3625 35.7042 35.7729 37.8125 34.1C39.3938 32.8396 41.3875 32.0833 43.5417 32.0833C48.6063 32.0833 52.7083 36.1854 52.7083 41.25Z" stroke="white" stroke-width="2" stroke-miterlimit="10" stroke-linecap="round" stroke-linejoin="round"/>
<path d="M44.1146 38.3854V41.8229L41.25 43.5417" stroke="white" stroke-width="2" stroke-miterlimit="10" stroke-linecap="round" stroke-linejoin="round"/>
</svg>
