<svg width="20" height="20" viewBox="0 0 20 20" fill="none" xmlns="http://www.w3.org/2000/svg">
<g clip-path="url(#clip0_120_2835)">
<path d="M19.2188 8.375C18.4688 3.96875 14.625 0.625 10 0.625C5.375 0.625 1.53125 3.96875 0.78125 8.375L10 3.75L19.2188 8.375ZM0.78125 11.625C1.53125 16.0312 5.375 19.375 10 19.375C14.625 19.375 18.4688 16.0312 19.2188 11.625L10 16.25L0.78125 11.625Z" fill="#699635"/>
<path d="M10 3.75L0.78125 8.375C0.6875 8.90625 0.625 9.4375 0.625 10C0.625 10.5625 0.6875 11.0938 0.78125 11.625L10 16.25L19.2188 11.625C19.3125 11.0938 19.375 10.5625 19.375 10C19.375 9.4375 19.3125 8.90625 19.2188 8.375L10 3.75Z" fill="#FFE62E"/>
<path d="M8.125 8.875C7.125 8.875 6.1875 9.09375 5.34375 9.46875C5.3125 9.65625 5.3125 9.8125 5.3125 10C5.3125 12.5938 7.40625 14.6875 10 14.6875C11.75 14.6875 13.2813 13.7188 14.0938 12.3125C12.9375 10.2813 10.6875 8.875 8.125 8.875Z" fill="#428BC1"/>
<path d="M14.625 10.75C14.6562 10.5 14.6875 10.25 14.6875 10C14.6875 7.40625 12.5938 5.3125 10 5.3125C8.15625 5.3125 6.5625 6.375 5.78125 7.9375C6.53125 7.71875 7.3125 7.59375 8.125 7.59375C10.7812 7.59375 13.125 8.84375 14.625 10.75Z" fill="#428BC1"/>
<path d="M8.125 7.59375C7.3125 7.59375 6.53125 7.71875 5.78125 7.9375C5.5625 8.40625 5.40625 8.90625 5.34375 9.46875C6.1875 9.09375 7.125 8.875 8.125 8.875C10.6875 8.875 12.9375 10.25 14.0937 12.2812C14.375 11.8125 14.5312 11.2813 14.625 10.75C13.125 8.84375 10.7812 7.59375 8.125 7.59375Z" fill="white"/>
<path d="M6.875 10.3125C7.04759 10.3125 7.1875 10.1726 7.1875 10C7.1875 9.82741 7.04759 9.6875 6.875 9.6875C6.70241 9.6875 6.5625 9.82741 6.5625 10C6.5625 10.1726 6.70241 10.3125 6.875 10.3125Z" fill="white"/>
<path d="M8.125 12.1875C8.29759 12.1875 8.4375 12.0476 8.4375 11.875C8.4375 11.7024 8.29759 11.5625 8.125 11.5625C7.95241 11.5625 7.8125 11.7024 7.8125 11.875C7.8125 12.0476 7.95241 12.1875 8.125 12.1875Z" fill="white"/>
<path d="M10 12.1875C10.1726 12.1875 10.3125 12.0476 10.3125 11.875C10.3125 11.7024 10.1726 11.5625 10 11.5625C9.82741 11.5625 9.6875 11.7024 9.6875 11.875C9.6875 12.0476 9.82741 12.1875 10 12.1875Z" fill="white"/>
<path d="M10 13.4375C10.1726 13.4375 10.3125 13.2976 10.3125 13.125C10.3125 12.9524 10.1726 12.8125 10 12.8125C9.82741 12.8125 9.6875 12.9524 9.6875 13.125C9.6875 13.2976 9.82741 13.4375 10 13.4375Z" fill="white"/>
<path d="M12.5 12.1875C12.6726 12.1875 12.8125 12.0476 12.8125 11.875C12.8125 11.7024 12.6726 11.5625 12.5 11.5625C12.3274 11.5625 12.1875 11.7024 12.1875 11.875C12.1875 12.0476 12.3274 12.1875 12.5 12.1875Z" fill="white"/>
<path d="M12.5 13.4375C12.6726 13.4375 12.8125 13.2976 12.8125 13.125C12.8125 12.9524 12.6726 12.8125 12.5 12.8125C12.3274 12.8125 12.1875 12.9524 12.1875 13.125C12.1875 13.2976 12.3274 13.4375 12.5 13.4375Z" fill="white"/>
<path d="M11.25 12.8125C11.4226 12.8125 11.5625 12.6726 11.5625 12.5C11.5625 12.3274 11.4226 12.1875 11.25 12.1875C11.0774 12.1875 10.9375 12.3274 10.9375 12.5C10.9375 12.6726 11.0774 12.8125 11.25 12.8125Z" fill="white"/>
<path d="M6.875 11.5625C7.04759 11.5625 7.1875 11.4226 7.1875 11.25C7.1875 11.0774 7.04759 10.9375 6.875 10.9375C6.70241 10.9375 6.5625 11.0774 6.5625 11.25C6.5625 11.4226 6.70241 11.5625 6.875 11.5625Z" fill="white"/>
</g>
<defs>
<clipPath id="clip0_120_2835">
<rect width="20" height="20" fill="white"/>
</clipPath>
</defs>
</svg>
