<svg width="20" height="20" viewBox="0 0 20 20" fill="none" xmlns="http://www.w3.org/2000/svg">
<path d="M14.166 8.33333C15.5467 8.33333 16.666 7.21404 16.666 5.83333C16.666 4.45262 15.5467 3.33333 14.166 3.33333C12.7853 3.33333 11.666 4.45262 11.666 5.83333C11.666 7.21404 12.7853 8.33333 14.166 8.33333Z" stroke="#FD295C" stroke-linecap="round" stroke-linejoin="round"/>
<path d="M5.83301 16.6667C7.21372 16.6667 8.33301 15.5474 8.33301 14.1667C8.33301 12.7859 7.21372 11.6667 5.83301 11.6667C4.4523 11.6667 3.33301 12.7859 3.33301 14.1667C3.33301 15.5474 4.4523 16.6667 5.83301 16.6667Z" stroke="#FD295C" stroke-linecap="round" stroke-linejoin="round"/>
<path d="M11.6663 11.6667H16.6663V15.8333C16.6663 16.0543 16.5785 16.2663 16.4223 16.4226C16.266 16.5789 16.054 16.6667 15.833 16.6667H12.4997C12.2787 16.6667 12.0667 16.5789 11.9104 16.4226C11.7541 16.2663 11.6663 16.0543 11.6663 15.8333V11.6667ZM3.33301 3.33333H8.33301V7.49999C8.33301 7.72101 8.24521 7.93297 8.08893 8.08925C7.93265 8.24553 7.72069 8.33333 7.49967 8.33333H4.16634C3.94533 8.33333 3.73337 8.24553 3.57709 8.08925C3.42081 7.93297 3.33301 7.72101 3.33301 7.49999V3.33333Z" stroke="#FD295C" stroke-linecap="round" stroke-linejoin="round"/>
</svg>
