<svg width="20" height="20" viewBox="0 0 20 20" fill="none" xmlns="http://www.w3.org/2000/svg">
<path fill-rule="evenodd" clip-rule="evenodd" d="M15.0001 3.33333V5.83333H17.5001C17.7211 5.83333 17.9331 5.92113 18.0893 6.07741C18.2456 6.23369 18.3334 6.44565 18.3334 6.66667V15C18.3334 15.663 18.07 16.2989 17.6012 16.7678C17.1323 17.2366 16.4965 17.5 15.8334 17.5H4.16675C3.50371 17.5 2.86782 17.2366 2.39898 16.7678C1.93014 16.2989 1.66675 15.663 1.66675 15V3.33333C1.66675 3.11232 1.75455 2.90036 1.91083 2.74408C2.06711 2.5878 2.27907 2.5 2.50008 2.5H14.1667C14.3878 2.5 14.5997 2.5878 14.756 2.74408C14.9123 2.90036 15.0001 3.11232 15.0001 3.33333ZM16.6667 15C16.6667 15.221 16.579 15.433 16.4227 15.5893C16.2664 15.7455 16.0544 15.8333 15.8334 15.8333C15.6124 15.8333 15.4004 15.7455 15.2442 15.5893C15.0879 15.433 15.0001 15.221 15.0001 15V7.5H16.6667V15ZM5.00008 6.66667C5.00008 6.44565 5.08788 6.23369 5.24416 6.07741C5.40044 5.92113 5.6124 5.83333 5.83341 5.83333H10.8334C11.0544 5.83333 11.2664 5.92113 11.4227 6.07741C11.5789 6.23369 11.6667 6.44565 11.6667 6.66667C11.6667 6.88768 11.5789 7.09964 11.4227 7.25592C11.2664 7.4122 11.0544 7.5 10.8334 7.5H5.83341C5.6124 7.5 5.40044 7.4122 5.24416 7.25592C5.08788 7.09964 5.00008 6.88768 5.00008 6.66667ZM6.66675 10C6.66675 9.77899 6.75455 9.56702 6.91083 9.41074C7.06711 9.25446 7.27907 9.16667 7.50008 9.16667H10.8334C11.0544 9.16667 11.2664 9.25446 11.4227 9.41074C11.5789 9.56702 11.6667 9.77899 11.6667 10C11.6667 10.221 11.5789 10.433 11.4227 10.5893C11.2664 10.7455 11.0544 10.8333 10.8334 10.8333H7.50008C7.27907 10.8333 7.06711 10.7455 6.91083 10.5893C6.75455 10.433 6.66675 10.221 6.66675 10Z" fill="#FD295C"/>
</svg>
