<svg width="55" height="55" viewBox="0 0 55 55" fill="none" xmlns="http://www.w3.org/2000/svg">
<path d="M19.873 32.8392C19.873 35.7955 22.1418 38.1788 24.9605 38.1788H30.7126C33.1647 38.1788 35.1585 36.0934 35.1585 33.5267C35.1585 30.7309 33.9439 29.7455 32.1335 29.1038L22.898 25.8955C21.0876 25.2538 19.873 24.2684 19.873 21.4725C19.873 18.9059 21.8668 16.8205 24.3189 16.8205H30.071C32.8897 16.8205 35.1585 19.2038 35.1585 22.16" stroke="white" stroke-width="2" stroke-linecap="round" stroke-linejoin="round"/>
<path d="M27.5 13.75V41.25" stroke="white" stroke-width="2" stroke-linecap="round" stroke-linejoin="round"/>
<path d="M27.5 50.4167C40.1565 50.4167 50.4167 40.1565 50.4167 27.5C50.4167 14.8435 40.1565 4.58334 27.5 4.58334C14.8435 4.58334 4.58334 14.8435 4.58334 27.5C4.58334 40.1565 14.8435 50.4167 27.5 50.4167Z" stroke="white" stroke-width="2" stroke-linecap="round" stroke-linejoin="round"/>
</svg>
