<svg width="24" height="24" viewBox="0 0 24 24" fill="none" xmlns="http://www.w3.org/2000/svg">
<path d="M7 9L10.75 12C11.1047 12.284 11.5456 12.4387 12 12.4387C12.4544 12.4387 12.8953 12.284 13.25 12L17 9M21 17V7C21 6.46957 20.7893 5.96086 20.4142 5.58579C20.0391 5.21071 19.5304 5 19 5H5C4.46957 5 3.96086 5.21071 3.58579 5.58579C3.21071 5.96086 3 6.46957 3 7V17C3 17.5304 3.21071 18.0391 3.58579 18.4142C3.96086 18.7893 4.46957 19 5 19H19C19.5304 19 20.0391 18.7893 20.4142 18.4142C20.7893 18.0391 21 17.5304 21 17Z" stroke="#FD295C" stroke-width="1.66667" stroke-linecap="round" stroke-linejoin="round"/>
</svg>
