<svg width="55" height="55" viewBox="0 0 55 55" fill="none" xmlns="http://www.w3.org/2000/svg">
<path d="M5.72919 30.3416V26.3771C5.72919 21.6333 9.60209 17.7604 14.3458 17.7604H40.6542C45.398 17.7604 49.2709 21.6333 49.2709 26.3771V29.6771H44.6417C43.3583 29.6771 42.1896 30.1812 41.3417 31.052C40.3792 31.9916 39.8292 33.3437 39.9667 34.7875C40.1729 37.2625 42.4417 39.0729 44.9167 39.0729H49.2709V41.8C49.2709 46.5437 45.398 50.4167 40.6542 50.4167H28.0958" stroke="white" stroke-width="2" stroke-linecap="round" stroke-linejoin="round"/>
<path d="M5.72919 28.4395V17.9668C5.72919 15.2397 7.4021 12.8104 9.94585 11.8479L28.1417 4.9729C30.9834 3.89582 34.0313 6.00422 34.0313 9.05214V17.7604" stroke="white" stroke-width="2" stroke-linecap="round" stroke-linejoin="round"/>
<path d="M51.6973 32.0149V36.7359C51.6973 37.9963 50.689 39.0275 49.4056 39.0733H44.914C42.439 39.0733 40.1702 37.2629 39.964 34.7879C39.8265 33.3441 40.3764 31.992 41.3389 31.0525C42.1869 30.1816 43.3556 29.6775 44.6389 29.6775H49.4056C50.689 29.7234 51.6973 30.7545 51.6973 32.0149Z" stroke="white" stroke-width="2" stroke-linecap="round" stroke-linejoin="round"/>
<path d="M16.0417 27.5H32.0834" stroke="white" stroke-width="2" stroke-linecap="round" stroke-linejoin="round"/>
<path d="M6.875 37.8125H19.1125C20.5792 37.8125 21.7708 39.0041 21.7708 40.4708V43.4042" stroke="white" stroke-width="2" stroke-miterlimit="10" stroke-linecap="round" stroke-linejoin="round"/>
<path d="M9.67084 35.0167L6.875 37.8125L9.67084 40.6083" stroke="white" stroke-width="2" stroke-miterlimit="10" stroke-linecap="round" stroke-linejoin="round"/>
<path d="M21.7708 49.9126H9.53334C8.06668 49.9126 6.875 48.7208 6.875 47.2542V44.3209" stroke="white" stroke-width="2" stroke-miterlimit="10" stroke-linecap="round" stroke-linejoin="round"/>
<path d="M18.9778 52.709L21.7737 49.9132L18.9778 47.1173" stroke="white" stroke-width="2" stroke-miterlimit="10" stroke-linecap="round" stroke-linejoin="round"/>
</svg>
