<svg width="20" height="20" viewBox="0 0 20 20" fill="none" xmlns="http://www.w3.org/2000/svg">
<g clip-path="url(#clip0_120_2787)">
<path d="M0.59375 10C0.59375 14.0938 3.21875 17.5625 6.84375 18.8438V1.15625C3.21875 2.4375 0.59375 5.90625 0.59375 10Z" fill="#3248BE"/>
<path d="M19.3438 10C19.3438 5.90625 16.75 2.4375 13.0938 1.15625V18.8438C16.75 17.5625 19.3438 14.0938 19.3438 10Z" fill="#ED4C5C"/>
<path d="M6.84375 18.8438C7.8125 19.1875 8.875 19.375 9.96875 19.375C11.0625 19.375 12.125 19.1875 13.0938 18.8438V1.15625C12.125 0.8125 11.0938 0.625 9.96875 0.625C8.84375 0.625 7.8125 0.8125 6.84375 1.15625V18.8438Z" fill="white"/>
</g>
<defs>
<clipPath id="clip0_120_2787">
<rect width="20" height="20" fill="white"/>
</clipPath>
</defs>
</svg>
