<svg width="55" height="55" viewBox="0 0 55 55" fill="none" xmlns="http://www.w3.org/2000/svg">
<path d="M12.5125 42.3729V35.6812C12.5125 33.4583 14.2542 31.4646 16.7292 31.4646C18.9521 31.4646 20.9458 33.2062 20.9458 35.6812V42.1208C20.9458 46.5896 17.2333 50.3021 12.7646 50.3021C8.29582 50.3021 4.58332 46.5667 4.58332 42.1208V28.0042C4.33124 15.125 14.5062 4.69791 27.3854 4.69791C40.2646 4.69791 50.4167 15.125 50.4167 27.7521V41.8687C50.4167 46.3375 46.7042 50.05 42.2354 50.05C37.7667 50.05 34.0542 46.3375 34.0542 41.8687V35.4292C34.0542 33.2062 35.7958 31.2125 38.2708 31.2125C40.4937 31.2125 42.4875 32.9542 42.4875 35.4292V42.3729" stroke="white" stroke-width="2" stroke-linecap="round" stroke-linejoin="round"/>
</svg>
