<svg width="35" height="35" viewBox="0 0 35 35" fill="none" xmlns="http://www.w3.org/2000/svg">
<mask id="mask0_71_1148" style="mask-type:luminance" maskUnits="userSpaceOnUse" x="2" y="2" width="31" height="31">
<path d="M17.5003 32.0833C19.4158 32.0858 21.3129 31.7097 23.0826 30.9767C24.8522 30.2436 26.4596 29.1681 27.8122 27.8118C29.1684 26.4592 30.244 24.8518 30.977 23.0822C31.7101 21.3125 32.0862 19.4154 32.0837 17.5C32.0861 15.5845 31.71 13.6874 30.977 11.9178C30.2439 10.1481 29.1684 8.54078 27.8122 7.1881C26.4596 5.83187 24.8522 4.75632 23.0826 4.02328C21.3129 3.29024 19.4158 2.91416 17.5003 2.91664C15.5849 2.9142 13.6878 3.2903 11.9181 4.02334C10.1485 4.75638 8.54114 5.8319 7.18846 7.1881C5.83227 8.54078 4.75674 10.1481 4.02371 11.9178C3.29067 13.6874 2.91456 15.5845 2.917 17.5C2.91452 19.4154 3.29061 21.3125 4.02365 23.0822C4.75669 24.8518 5.83223 26.4592 7.18846 27.8118C8.54114 29.168 10.1485 30.2436 11.9181 30.9766C13.6878 31.7096 15.5849 32.0857 17.5003 32.0833Z" fill="white" stroke="white" stroke-width="1.66667" stroke-linejoin="round"/>
<path d="M17.5 20.8724V17.9557C18.3653 17.9557 19.2112 17.6991 19.9306 17.2184C20.6501 16.7376 21.2108 16.0544 21.542 15.2549C21.8731 14.4555 21.9597 13.5758 21.7909 12.7272C21.6221 11.8785 21.2054 11.099 20.5936 10.4871C19.9817 9.87524 19.2022 9.45857 18.3535 9.28975C17.5049 9.12094 16.6252 9.20758 15.8258 9.53872C15.0263 9.86985 14.3431 10.4306 13.8623 11.1501C13.3816 11.8695 13.125 12.7154 13.125 13.5807" stroke="black" stroke-width="1.66667" stroke-linecap="round" stroke-linejoin="round"/>
<path fill-rule="evenodd" clip-rule="evenodd" d="M17.5007 27.4349C17.9841 27.4349 18.4478 27.2428 18.7896 26.901C19.1315 26.5591 19.3236 26.0954 19.3236 25.612C19.3236 25.1285 19.1315 24.6648 18.7896 24.323C18.4478 23.9811 17.9841 23.7891 17.5007 23.7891C17.0172 23.7891 16.5535 23.9811 16.2117 24.323C15.8698 24.6648 15.6777 25.1285 15.6777 25.612C15.6777 26.0954 15.8698 26.5591 16.2117 26.901C16.5535 27.2428 17.0172 27.4349 17.5007 27.4349Z" fill="black"/>
</mask>
<g mask="url(#mask0_71_1148)">
<path d="M0 0H35V35H0V0Z" fill="#FD295C"/>
</g>
</svg>
