<svg width="20" height="20" viewBox="0 0 20 20" fill="none" xmlns="http://www.w3.org/2000/svg">
<g clip-path="url(#clip0_120_2781)">
<path d="M0.53125 10C0.53125 14.0938 3.15625 17.5625 6.78125 18.8438V1.15625C3.15625 2.4375 0.53125 5.90625 0.53125 10Z" fill="#349957"/>
<path d="M19.2812 10C19.2812 5.90625 16.6562 2.4375 13.0312 1.15625V18.8438C16.6875 17.5625 19.2812 14.0938 19.2812 10Z" fill="#ED4C5C"/>
<path d="M6.78125 18.8438C7.75 19.1875 8.8125 19.375 9.90625 19.375C11 19.375 12.0625 19.1875 13.0312 18.8438V1.15625C12.0625 0.8125 11 0.625 9.90625 0.625C8.8125 0.625 7.75 0.8125 6.78125 1.15625V18.8438Z" fill="white"/>
</g>
<defs>
<clipPath id="clip0_120_2781">
<rect width="20" height="20" fill="white"/>
</clipPath>
</defs>
</svg>
