<svg width="20" height="20" viewBox="0 0 20 20" fill="none" xmlns="http://www.w3.org/2000/svg">
<path fill-rule="evenodd" clip-rule="evenodd" d="M2.64341 4.31016C1.66675 5.286 1.66675 6.85766 1.66675 10.0002C1.66675 13.1427 1.66675 14.7143 2.64341 15.6902C3.61925 16.6668 5.19091 16.6668 8.33341 16.6668H11.6667C14.8092 16.6668 16.3809 16.6668 17.3567 15.6902C18.3334 14.7143 18.3334 13.1427 18.3334 10.0002C18.3334 6.85766 18.3334 5.286 17.3567 4.31016C16.3809 3.3335 14.8092 3.3335 11.6667 3.3335H8.33341C5.19091 3.3335 3.61925 3.3335 2.64341 4.31016ZM15.4801 6.26683C15.5861 6.39415 15.6373 6.55837 15.6223 6.72339C15.6073 6.88841 15.5273 7.04072 15.4001 7.14683L13.5701 8.67183C12.8309 9.2885 12.2326 9.78683 11.7034 10.1268C11.1534 10.481 10.6176 10.7043 10.0001 10.7043C9.38258 10.7043 8.84675 10.4802 8.29591 10.1268C7.76758 9.78683 7.16925 9.28766 6.43008 8.67266L4.60008 7.14766C4.47267 7.04158 4.39261 6.88922 4.37753 6.72411C4.36245 6.559 4.41358 6.39466 4.51966 6.26725C4.62575 6.13983 4.77811 6.05978 4.94322 6.0447C5.10833 6.02962 5.27267 6.08074 5.40008 6.18683L7.20008 7.686C7.97758 8.3335 8.51675 8.78183 8.97341 9.07516C9.41425 9.3585 9.71342 9.45433 10.0009 9.45433C10.2884 9.45433 10.5876 9.35933 11.0284 9.07516C11.4842 8.78183 12.0242 8.3335 12.8017 7.686L14.6009 6.186C14.7283 6.08005 14.8926 6.02905 15.0577 6.04421C15.2227 6.05937 15.3741 6.13944 15.4801 6.26683Z" fill="#FD295C"/>
</svg>
