<svg width="27" height="28" viewBox="0 0 27 28" fill="none" xmlns="http://www.w3.org/2000/svg">
<path d="M11.8651 13.3639C11.0044 10.1516 12.9106 6.84985 16.1229 5.98913C19.3351 5.12841 22.6369 7.0347 23.4976 10.2469L25.0561 16.0632C25.9168 19.2755 24.0105 22.5773 20.7983 23.438C17.5861 24.2987 14.2843 22.3924 13.4235 19.1802L11.8651 13.3639Z" stroke="white" stroke-linecap="round" stroke-linejoin="round"/>
<path d="M23.7203 11.0778L12.0877 14.1947M17.904 12.6363L16.0116 5.57363C15.7459 4.58198 15.0971 3.73649 14.208 3.22317C13.3189 2.70985 12.2623 2.57075 11.2707 2.83647C10.279 3.10218 9.43352 3.75094 8.9202 4.64004C8.40688 5.52913 8.26778 6.58572 8.53349 7.57738L8.64481 7.99283C8.881 8.8743 8.75735 9.81349 8.30107 10.6038C7.84479 11.3941 7.09324 11.9708 6.21177 12.207C5.3303 12.4432 4.39111 12.3195 3.6008 11.8632C2.8105 11.4069 2.23382 10.6554 1.99763 9.77393L1.32971 7.28124" stroke="white" stroke-linecap="round" stroke-linejoin="round"/>
</svg>
