<svg width="43" height="21" viewBox="0 0 43 21" fill="none" xmlns="http://www.w3.org/2000/svg">
<path d="M41.7896 11.8954C41.3391 13.6212 40.0251 14.9409 38.3617 15.4401C37.7626 15.6199 37.1936 15.6939 36.5479 15.6939C26.4376 15.6944 16.3273 15.6945 6.21709 15.6942C5.58141 15.6942 4.9284 15.563 4.25808 15.3007C2.94049 14.7846 1.89846 13.786 1.38461 12.4387C0.57764 10.3226 1.18287 7.90867 2.92078 6.49846C3.94024 5.67088 5.17792 5.34095 6.46147 5.34095C16.5775 5.33997 26.6936 5.33972 36.8098 5.34021C37.3322 5.34046 37.8866 5.43695 38.4728 5.62968C41.0636 6.48265 42.4937 9.19934 41.7896 11.8954ZM39.7643 13.1125C41.1277 11.5501 41.0134 8.89589 39.3805 7.55593C38.5606 6.88283 37.5938 6.60881 36.559 6.60881C26.4638 6.60856 16.3684 6.60893 6.27299 6.60991C5.73621 6.60991 5.19787 6.71768 4.65798 6.93322C1.34125 8.25773 1.56664 13.3093 5.05322 14.2484C5.51332 14.3722 5.93114 14.4341 6.30667 14.4341C16.3333 14.4348 26.3598 14.4348 36.3862 14.4341C37.6705 14.4341 38.8774 14.1288 39.7643 13.1125Z" fill="#FF505A"/>
<path d="M38.5545 9.59621C37.7873 9.82389 37.1036 9.02683 37.4401 8.26986C37.6386 7.82407 38.1331 7.62802 38.5871 7.76412C39.4725 8.03042 39.4435 9.33248 38.5545 9.59621ZM38.315 9.48161C38.5177 9.47689 38.7102 9.38748 38.8501 9.23305C38.9901 9.07862 39.0661 8.87181 39.0613 8.65813C39.059 8.55233 39.0369 8.44802 38.9964 8.35117C38.9558 8.25431 38.8975 8.16681 38.8249 8.09365C38.7523 8.02048 38.6668 7.9631 38.5732 7.92477C38.4796 7.88644 38.3797 7.86792 38.2794 7.87025C38.0767 7.87498 37.8843 7.96439 37.7443 8.11882C37.6043 8.27325 37.5284 8.48005 37.5331 8.69373C37.5354 8.79953 37.5575 8.90384 37.5981 9.0007C37.6386 9.09755 37.6969 9.18506 37.7695 9.25822C37.8421 9.33138 37.9276 9.38877 38.0213 9.42709C38.1149 9.46542 38.2147 9.48395 38.315 9.48161Z" fill="#FF505A"/>
<path d="M8.6387 8.07129H10.0753C10.0784 8.07129 10.0814 8.07257 10.0836 8.07484C10.0858 8.07712 10.0871 8.08021 10.0871 8.08343V12.9327C10.0871 12.9359 10.0858 12.939 10.0836 12.9413C10.0814 12.9436 10.0784 12.9449 10.0753 12.9449H8.63225C8.63023 12.9448 8.62824 12.9443 8.62648 12.9433C8.62473 12.9422 8.62326 12.9407 8.62222 12.939L6.57828 9.56242C6.57691 9.56016 6.57487 9.55843 6.57245 9.55749C6.57003 9.55655 6.56738 9.55644 6.5649 9.5572C6.56242 9.55795 6.56025 9.55951 6.55872 9.56165C6.55719 9.56379 6.55638 9.56638 6.55642 9.56904L6.55929 12.9327C6.55929 12.9359 6.55804 12.939 6.55583 12.9413C6.55361 12.9436 6.5506 12.9449 6.54747 12.9449H5.10947C5.10634 12.9449 5.10333 12.9436 5.10111 12.9413C5.09889 12.939 5.09765 12.9359 5.09765 12.9327L5.09729 8.08343C5.09729 8.08021 5.09854 8.07712 5.10075 8.07484C5.10297 8.07257 5.10598 8.07129 5.10912 8.07129H6.56574C6.56776 8.07131 6.56975 8.07186 6.5715 8.07289C6.57326 8.07392 6.57473 8.07539 6.57577 8.07717L8.60502 11.4489C8.60637 11.4512 8.60838 11.4529 8.61077 11.4538C8.61315 11.4548 8.61576 11.4549 8.61822 11.4542C8.62069 11.4535 8.62286 11.452 8.62442 11.4499C8.62598 11.4479 8.62684 11.4453 8.62687 11.4427V8.08343C8.62687 8.08183 8.62718 8.08025 8.62777 8.07878C8.62837 8.07731 8.62924 8.07597 8.63034 8.07484C8.63143 8.07372 8.63274 8.07282 8.63417 8.07221C8.63561 8.0716 8.63715 8.07129 8.6387 8.07129Z" fill="#FF505A"/>
<path d="M12.3252 8.07129H10.9191C10.9138 8.07129 10.9095 8.07573 10.9095 8.08122V9.05446C10.9095 9.05995 10.9138 9.06439 10.9191 9.06439H12.3252C12.3306 9.06439 12.3349 9.05995 12.3349 9.05446V8.08122C12.3349 8.07573 12.3306 8.07129 12.3252 8.07129Z" fill="#FF505A"/>
<path d="M31.9544 12.7893C31.9544 12.767 31.945 12.7614 31.9261 12.7727C31.347 13.1185 30.6647 13.1291 30.1057 12.7565C29.2404 12.1794 29.0924 10.9642 29.7678 10.1686C30.1422 9.72744 30.6152 9.53336 31.1868 9.58632C31.4473 9.61023 31.691 9.72131 31.9229 9.84931C31.9453 9.86157 31.9565 9.85458 31.9565 9.82835L31.9533 8.09924C31.9533 8.09183 31.9562 8.08472 31.9614 8.07948C31.9666 8.07423 31.9736 8.07129 31.9809 8.07129H33.3404C33.3437 8.07129 33.3469 8.07194 33.3499 8.07319C33.3529 8.07445 33.3556 8.07629 33.3579 8.07861C33.3602 8.08094 33.362 8.08369 33.3633 8.08673C33.3645 8.08976 33.3651 8.09302 33.3651 8.0963L33.3594 12.932C33.3594 12.9354 33.3581 12.9387 33.3556 12.9411C33.3532 12.9435 33.3499 12.9449 33.3465 12.9449H31.9813C31.9633 12.9449 31.9544 12.9357 31.9544 12.9173V12.7893ZM30.8543 11.9591C30.8722 12.5693 31.6656 12.7245 31.9067 12.2085C31.9655 12.082 31.9687 11.9341 31.9705 11.7862C31.9765 11.3117 31.974 10.9382 31.963 10.6655C31.9315 9.88904 30.8525 9.90044 30.8461 10.7192C30.842 11.2233 30.8447 11.6367 30.8543 11.9591Z" fill="#FF505A"/>
<path d="M38.0998 8.77021V9.20607C38.0998 9.20893 38.0992 9.21177 38.0981 9.21441C38.097 9.21704 38.0954 9.21943 38.0934 9.22142C38.0914 9.22341 38.0891 9.22497 38.0865 9.226C38.0838 9.22702 38.0811 9.2275 38.0783 9.2274L37.9579 9.22372C37.953 9.22363 37.9484 9.22153 37.9449 9.21789C37.9415 9.21424 37.9396 9.20934 37.9396 9.20423L37.9382 8.14529C37.9382 8.13978 37.9402 8.13447 37.9438 8.13044C37.9475 8.12641 37.9525 8.12396 37.9579 8.12359C38.1261 8.11255 38.2905 8.11635 38.4513 8.13499C38.8236 8.17766 38.8118 8.70032 38.4735 8.72901C38.4701 8.72928 38.4667 8.73046 38.4638 8.73245C38.461 8.73443 38.4586 8.73715 38.4571 8.74034C38.4555 8.74353 38.4548 8.74707 38.455 8.75063C38.4552 8.75419 38.4562 8.75764 38.4581 8.76064L38.7394 9.20681C38.7485 9.22127 38.7447 9.22851 38.7279 9.22851H38.5971C38.5904 9.2285 38.5837 9.2267 38.5778 9.22329C38.5719 9.21988 38.567 9.21496 38.5635 9.20901L38.3037 8.76763C38.2975 8.75709 38.2884 8.75182 38.2764 8.75182H38.1177C38.1058 8.75182 38.0998 8.75795 38.0998 8.77021ZM38.1001 8.28874V8.58078C38.1001 8.58927 38.1034 8.59741 38.1093 8.60341C38.1151 8.60941 38.123 8.61278 38.1313 8.61278H38.3506C38.4075 8.61278 38.4621 8.59469 38.5024 8.56247C38.5426 8.53026 38.5653 8.48657 38.5653 8.44101V8.42851C38.5653 8.38295 38.5426 8.33926 38.5024 8.30705C38.4621 8.27483 38.4075 8.25674 38.3506 8.25674H38.1313C38.123 8.25674 38.1151 8.26011 38.1093 8.26611C38.1034 8.27211 38.1001 8.28025 38.1001 8.28874Z" fill="#FF505A"/>
<path d="M19.508 9.22806L20.2491 9.23983C20.253 9.23993 20.2567 9.2416 20.2595 9.24448C20.2622 9.24737 20.2638 9.25125 20.2638 9.25528V9.69261C20.2638 9.69671 20.2622 9.70064 20.2593 9.70354C20.2565 9.70643 20.2527 9.70806 20.2487 9.70806H19.5084C19.5044 9.70806 19.5006 9.70969 19.4977 9.71259C19.4949 9.71548 19.4933 9.71941 19.4933 9.72351V12.9294C19.4933 12.9335 19.4918 12.9374 19.4889 12.9403C19.4861 12.9432 19.4823 12.9448 19.4783 12.9448H18.0751C18.0711 12.9448 18.0672 12.9432 18.0644 12.9403C18.0616 12.9374 18.06 12.9335 18.06 12.9294V9.72351C18.06 9.71941 18.0584 9.71548 18.0556 9.71259C18.0528 9.70969 18.0489 9.70806 18.045 9.70806H17.3147C17.3107 9.70806 17.3069 9.70643 17.304 9.70354C17.3012 9.70064 17.2996 9.69671 17.2996 9.69261L17.2968 9.25013C17.2967 9.24804 17.2971 9.24596 17.2978 9.24402C17.2986 9.24208 17.2997 9.24031 17.3012 9.23883C17.3026 9.23736 17.3043 9.23619 17.3062 9.23541C17.3081 9.23464 17.3101 9.23426 17.3122 9.23431L18.045 9.2413C18.0489 9.2413 18.0528 9.23967 18.0556 9.23678C18.0584 9.23388 18.06 9.22995 18.06 9.22585V8.59248C18.06 8.58838 18.0616 8.58445 18.0644 8.58155C18.0672 8.57865 18.0711 8.57703 18.0751 8.57703H19.4783C19.4823 8.57703 19.4861 8.57865 19.4889 8.58155C19.4918 8.58445 19.4933 8.58838 19.4933 8.59248V9.21261C19.4933 9.21665 19.4949 9.22052 19.4976 9.22341C19.5004 9.2263 19.5041 9.22797 19.508 9.22806Z" fill="#FF505A"/>
<path d="M37.9987 11.3067C37.9979 11.7878 37.7779 12.2488 37.3871 12.5883C36.9963 12.9278 36.4667 13.118 35.9148 13.117C35.363 13.116 34.834 12.924 34.4444 12.5831C34.0547 12.2422 33.8363 11.7804 33.8371 11.2992C33.8379 10.8181 34.0579 10.3571 34.4487 10.0176C34.8395 9.67808 35.3691 9.48791 35.921 9.4889C36.4729 9.48988 37.0018 9.68196 37.3915 10.0229C37.7811 10.3638 37.9996 10.8256 37.9987 11.3067ZM35.3231 12.0621C35.3367 12.7246 36.149 13.0056 36.4189 12.3538C36.4707 12.229 36.4965 12.141 36.4963 12.0897C36.4963 11.5838 36.4963 11.0779 36.4963 10.5717C36.4963 9.682 35.3453 9.64595 35.3277 10.5456C35.316 11.1515 35.3145 11.657 35.3231 12.0621Z" fill="#FF505A"/>
<path d="M21.5996 12.1077C21.6254 12.7352 22.4034 13.0041 22.709 12.4064C22.799 12.2302 22.7836 12.0242 22.7807 11.8422C22.7806 11.8385 22.7812 11.8348 22.7825 11.8314C22.7838 11.828 22.7858 11.8248 22.7883 11.8222C22.7908 11.8195 22.7938 11.8175 22.7971 11.816C22.8004 11.8146 22.804 11.8138 22.8076 11.8139H24.1771C24.1907 11.8139 24.1952 11.8205 24.1904 11.8337C23.8424 12.8029 22.8097 13.2266 21.8666 13.113C21.0525 13.0148 20.2853 12.4689 20.1108 11.6119C20.0697 11.4104 20.074 11.202 20.1237 10.987C20.6092 8.88603 24.1578 9.07031 24.2814 11.3129C24.2823 11.3281 24.2753 11.3357 24.2603 11.3357H21.6179C21.6081 11.3357 21.603 11.3407 21.6025 11.3508C21.5903 11.6046 21.5894 11.8569 21.5996 12.1077ZM21.6265 10.8417L22.7603 10.8395C22.7686 10.8395 22.7767 10.8361 22.7826 10.83C22.7885 10.824 22.7918 10.8157 22.7918 10.8071L22.7914 10.5603C22.7911 10.3852 22.7283 10.2174 22.6166 10.0938C22.505 9.97023 22.3538 9.90094 22.1963 9.90121H22.1877C22.1096 9.90134 22.0324 9.91855 21.9604 9.95186C21.8883 9.98517 21.8229 10.0339 21.7678 10.0953C21.7128 10.1567 21.6691 10.2296 21.6394 10.3098C21.6097 10.3899 21.5945 10.4758 21.5946 10.5625L21.595 10.8093C21.595 10.8179 21.5983 10.8262 21.6042 10.8322C21.6101 10.8383 21.6181 10.8417 21.6265 10.8417Z" fill="#FF505A"/>
<path d="M14.5304 10.0302C14.5304 10.0322 14.5309 10.0342 14.532 10.0359C14.533 10.0376 14.5346 10.0389 14.5364 10.0397C14.5381 10.0406 14.5401 10.0408 14.5421 10.0405C14.544 10.0402 14.5458 10.0393 14.5473 10.0379C15.571 9.08857 17.2537 9.63846 17.2778 11.1344C17.2833 11.4693 17.2835 12.067 17.2785 12.9275C17.2785 12.939 17.273 12.9448 17.262 12.9448H15.8838C15.8719 12.9448 15.8659 12.9387 15.8659 12.9267C15.8643 12.287 15.8643 11.6477 15.8659 11.0089C15.8666 10.8321 15.8553 10.7077 15.8319 10.6356C15.6875 10.1905 15.1163 10.1243 14.7827 10.3631C14.5885 10.5021 14.5308 10.6856 14.5308 10.9394C14.5303 11.602 14.5302 12.2642 14.5304 12.926C14.5304 12.931 14.5285 12.9357 14.5251 12.9393C14.5216 12.9428 14.517 12.9448 14.5121 12.9448H13.1412C13.1302 12.9448 13.1246 12.9391 13.1243 12.9278L13.1125 9.73777C13.1124 9.73406 13.1131 9.73039 13.1145 9.72696C13.1158 9.72352 13.1178 9.7204 13.1203 9.71776C13.1229 9.71513 13.1259 9.71303 13.1292 9.71161C13.1325 9.71018 13.1361 9.70944 13.1397 9.70945L14.5154 9.70466C14.5254 9.70466 14.5304 9.70981 14.5304 9.72011V10.0302Z" fill="#FF505A"/>
<path d="M26.1533 10.0285C26.7075 9.54958 27.2974 9.43789 27.9228 9.6934C28.4739 9.9185 28.8462 10.4007 28.8727 11.0139C28.8839 11.2721 28.8827 11.8082 28.8691 12.6223C28.8677 12.7128 28.858 12.8198 28.8716 12.9247C28.8719 12.9272 28.8717 12.9298 28.871 12.9323C28.8703 12.9347 28.8691 12.937 28.8674 12.9389C28.8658 12.9408 28.8638 12.9423 28.8616 12.9434C28.8593 12.9444 28.8569 12.9449 28.8544 12.9449H27.4845C27.4726 12.9449 27.4666 12.9388 27.4666 12.9265C27.4657 12.2566 27.4657 11.5874 27.4666 10.919C27.4666 10.7927 27.4514 10.6932 27.4211 10.6207C27.1943 10.0826 26.3794 10.0936 26.1705 10.635C26.1438 10.7042 26.1305 10.8172 26.1307 10.9741C26.1322 11.6252 26.1322 12.276 26.1307 12.9265C26.1307 12.9388 26.1249 12.9449 26.1132 12.9449H24.7429C24.731 12.9449 24.725 12.9388 24.725 12.9265V9.7265C24.725 9.71424 24.731 9.70811 24.7429 9.70811H26.1028C26.1212 9.70811 26.1305 9.71743 26.1307 9.73607L26.1333 10.0189C26.1335 10.0368 26.1402 10.04 26.1533 10.0285Z" fill="#FF505A"/>
<path d="M12.3234 9.70801H10.9231C10.9165 9.70801 10.9113 9.71344 10.9113 9.72015V12.9327C10.9113 12.9394 10.9165 12.9448 10.9231 12.9448H12.3234C12.33 12.9448 12.3353 12.9394 12.3353 12.9327V9.72015C12.3353 9.71344 12.33 9.70801 12.3234 9.70801Z" fill="#FF505A"/>
</svg>
