<svg width="18" height="18" viewBox="0 0 18 18" fill="none" xmlns="http://www.w3.org/2000/svg">
<path d="M16.5175 9.05419L17.4591 7.42682C17.5723 7.23103 17.6031 6.99831 17.5447 6.77982C17.4863 6.56134 17.3436 6.37499 17.1478 6.26174L15.5187 5.32012V3.4437C15.5187 3.21749 15.4289 3.00055 15.2689 2.8406C15.109 2.68064 14.892 2.59078 14.6658 2.59078H12.7903L11.8495 0.962566C11.7359 0.767177 11.5499 0.624389 11.3318 0.565107C11.2236 0.53578 11.1107 0.528218 10.9995 0.542859C10.8884 0.5575 10.7813 0.594053 10.6844 0.650399L9.05534 1.59202L7.42626 0.649546C7.23037 0.536447 6.99757 0.505798 6.77907 0.56434C6.56058 0.622882 6.37429 0.765821 6.26118 0.961713L5.31956 2.59078H3.444C3.21779 2.59078 3.00085 2.68064 2.84089 2.8406C2.68094 3.00055 2.59108 3.21749 2.59108 3.4437V5.31926L0.962009 6.26088C0.864804 6.3168 0.779605 6.39137 0.711306 6.48031C0.643008 6.56925 0.592957 6.67081 0.564028 6.77915C0.5351 6.88749 0.527864 7.00049 0.542737 7.11163C0.55761 7.22278 0.594298 7.3299 0.650694 7.42682L1.59231 9.05419L0.650694 10.6816C0.5381 10.8775 0.507551 11.1101 0.565708 11.3285C0.623865 11.5469 0.766012 11.7335 0.961156 11.8475L2.59023 12.7891V14.6647C2.59023 14.8909 2.68009 15.1078 2.84004 15.2678C2.99999 15.4277 3.21694 15.5176 3.44314 15.5176H5.31956L6.26118 17.1467C6.33669 17.2757 6.4445 17.3829 6.57401 17.4577C6.70352 17.5325 6.85026 17.5723 6.99981 17.5731C7.14821 17.5731 7.29577 17.5339 7.42712 17.458L9.05448 16.5164L10.6836 17.458C10.8794 17.5709 11.112 17.6016 11.3305 17.5432C11.5489 17.4848 11.7352 17.3422 11.8486 17.1467L12.7894 15.5176H14.665C14.8912 15.5176 15.1081 15.4277 15.2681 15.2678C15.428 15.1078 15.5179 14.8909 15.5179 14.6647V12.7891L17.147 11.8475C17.244 11.7914 17.329 11.7168 17.3972 11.6278C17.4654 11.5388 17.5153 11.4373 17.5443 11.329C17.5732 11.2208 17.5805 11.1078 17.5657 10.9967C17.5509 10.8856 17.5144 10.7785 17.4583 10.6816L16.5175 9.05419ZM6.92219 4.78107C7.26161 4.78119 7.58709 4.91613 7.82702 5.15622C8.06695 5.39631 8.20168 5.72188 8.20156 6.0613C8.20145 6.40073 8.06651 6.7262 7.82642 6.96613C7.58633 7.20606 7.26076 7.34079 6.92134 7.34068C6.58191 7.34056 6.25644 7.20562 6.01651 6.96553C5.77658 6.72544 5.64185 6.39987 5.64196 6.06045C5.64208 5.72102 5.77702 5.39555 6.01711 5.15562C6.2572 4.91569 6.58277 4.78096 6.92219 4.78107ZM7.17806 12.9691L5.8134 11.9464L10.9309 5.12309L12.2956 6.14574L7.17806 12.9691ZM11.1868 13.3102C11.0187 13.3102 10.8523 13.277 10.697 13.2127C10.5418 13.1483 10.4007 13.054 10.2819 12.9351C10.1631 12.8162 10.0689 12.6751 10.0047 12.5198C9.94039 12.3645 9.90734 12.1981 9.9074 12.03C9.90745 11.8619 9.94061 11.6955 10.005 11.5403C10.0693 11.385 10.1637 11.244 10.2825 11.1252C10.4014 11.0064 10.5425 10.9122 10.6978 10.8479C10.8531 10.7836 11.0196 10.7506 11.1876 10.7506C11.5271 10.7508 11.8525 10.8857 12.0925 11.1258C12.3324 11.3659 12.4671 11.6914 12.467 12.0309C12.4669 12.3703 12.3319 12.6958 12.0919 12.9357C11.8518 13.1756 11.5262 13.3104 11.1868 13.3102Z" fill="#FD295C"/>
</svg>
