<svg width="36" height="32" viewBox="0 0 36 32" fill="none" xmlns="http://www.w3.org/2000/svg">
<path fill-rule="evenodd" clip-rule="evenodd" d="M31.4534 21.6611C30.9181 22.3424 29.6072 22.8282 29.6072 22.8282L19.8545 26.3628V23.7562L27.0318 21.1759C27.8462 20.8813 27.9713 20.4652 27.3093 20.2466C26.6485 20.0274 25.4519 20.0902 24.6369 20.386L19.8545 22.0855V19.3802L20.1302 19.2861C20.1302 19.2861 21.5121 18.7926 23.4554 18.5754C25.3985 18.3595 27.7778 18.6049 29.6456 19.3193C31.7507 19.9905 31.9877 20.9799 31.4532 21.6611H31.4534ZM20.7829 17.2224V10.5562C20.7829 9.77331 20.6397 9.0527 19.9117 8.84861C19.3542 8.66839 19.0083 9.19063 19.0083 9.97294V26.6669L14.5464 25.2379V5.33337C16.4435 5.68865 19.2075 6.52876 20.6933 7.03411C24.472 8.34312 25.7531 9.97238 25.7531 13.6433C25.7531 17.2212 23.5642 18.5772 20.7829 17.2224ZM6.3593 23.4837C4.19824 22.8696 3.83866 21.5902 4.82359 20.8531C5.73395 20.1726 7.28211 19.6602 7.28211 19.6602L13.6797 17.365V19.9817L9.07585 21.6441C8.26261 21.9385 8.13754 22.3553 8.79845 22.5738C9.45978 22.7923 10.6569 22.7302 11.4714 22.4351L13.6797 21.6265V23.9676C13.5396 23.9927 13.3836 24.0178 13.2391 24.0423C11.0302 24.4065 8.67767 24.2544 6.3593 23.4836V23.4837ZM30.0321 24.5202C30.3115 24.5202 30.5734 24.6294 30.7707 24.831C30.868 24.9285 30.9452 25.0445 30.9978 25.1723C31.0503 25.3002 31.0771 25.4372 31.0768 25.5756C31.0773 25.714 31.0505 25.8511 30.9979 25.979C30.9454 26.1068 30.8681 26.2228 30.7707 26.3202C30.6742 26.4188 30.5591 26.4969 30.4323 26.55C30.3055 26.6032 30.1694 26.6303 30.0321 26.6297C29.8948 26.6302 29.7587 26.6031 29.6319 26.5499C29.5051 26.4968 29.3901 26.4187 29.2935 26.3202C29.1962 26.2228 29.119 26.1068 29.0666 25.9789C29.0142 25.8511 28.9875 25.714 28.9881 25.5756C28.9881 24.9942 29.456 24.5202 30.0321 24.5202ZM29.1635 25.5756C29.1635 25.8097 29.2537 26.0301 29.4181 26.1946C29.4983 26.2766 29.5939 26.3416 29.6993 26.3858C29.8048 26.43 29.9179 26.4525 30.0321 26.452C30.2624 26.4519 30.4833 26.3596 30.6462 26.1952C30.8091 26.0309 30.9007 25.808 30.9008 25.5756C30.9008 25.3408 30.8111 25.1205 30.6462 24.9552C30.5659 24.8733 30.4703 24.8084 30.3648 24.7643C30.2593 24.7203 30.1462 24.6979 30.0321 24.6985C29.9179 24.6979 29.8048 24.7203 29.6993 24.7644C29.5938 24.8085 29.4982 24.8734 29.4179 24.9554C29.3369 25.0366 29.2727 25.1332 29.229 25.2397C29.1853 25.3462 29.163 25.4604 29.1635 25.5756ZM30.3475 25.0074C30.4621 25.0583 30.5199 25.1562 30.5199 25.2956C30.5199 25.3672 30.505 25.4274 30.4745 25.4745C30.4527 25.5085 30.4217 25.536 30.3868 25.5598C30.4142 25.5762 30.4384 25.5957 30.4564 25.6183C30.4813 25.6509 30.4957 25.7031 30.4975 25.774L30.503 25.924C30.505 25.9642 30.5074 25.995 30.5137 26.0138C30.5199 26.0414 30.5317 26.059 30.5467 26.0646L30.5622 26.0722V26.1406H30.337L30.3295 26.1274C30.3228 26.1128 30.3178 26.0975 30.3146 26.0817C30.3099 26.0513 30.3073 26.0206 30.3066 25.9899L30.2971 25.8034C30.2947 25.7388 30.2729 25.6987 30.2318 25.6772C30.2062 25.6654 30.1641 25.6598 30.1068 25.6598H29.7899V26.1406H29.5878V24.9672H30.1279C30.2162 24.9672 30.2904 24.9804 30.3475 25.0074ZM29.7899 25.4801H30.1123C30.1771 25.4801 30.2287 25.4683 30.2655 25.4438C30.2991 25.4193 30.3153 25.3747 30.3153 25.3099C30.3153 25.2397 30.2922 25.1938 30.2436 25.1694C30.2169 25.1563 30.1795 25.1487 30.1322 25.1487H29.7901V25.4801H29.7899Z" fill="white"/>
</svg>
