<svg width="24" height="24" viewBox="0 0 24 24" fill="none" xmlns="http://www.w3.org/2000/svg">
<path d="M20 15.552C19.4113 17.422 18.2416 19.0556 16.6608 20.2152C15.08 21.3748 13.1705 22.0001 11.21 22C8.76736 22 6.42476 21.0297 4.69755 19.3025C2.97034 17.5752 2 15.2326 2 12.79C1.99995 10.8295 2.62517 8.92005 3.78478 7.33925C4.9444 5.75845 6.57795 4.58869 8.448 4" stroke="#FD295C" stroke-width="2" stroke-linecap="round"/>
<path d="M21.913 9.94697C21.3867 8.07286 20.3873 6.36558 19.0109 4.98912C17.6344 3.61266 15.9271 2.61327 14.053 2.08697C12.409 1.62797 11 3.05397 11 4.75997V11.454C11 12.307 11.692 12.999 12.545 12.999H19.239C20.946 12.999 22.372 11.59 21.913 9.94697Z" stroke="#FD295C" stroke-width="2"/>
</svg>
