<svg width="48" height="48" viewBox="0 0 48 48" fill="#fff" xmlns="http://www.w3.org/2000/svg">
<g clip-path="url(#clip0_80_6205)">
<path d="M1.72528 22.0558C2.30859 14.8606 6.2394 8.37955 12.2969 4.56994C19.2637 0.189162 28.0661 0.120789 35.1612 4.22323C41.7966 8.06047 46.1055 15.3054 46.3683 23.0013C46.5449 28.1756 45.1804 32.8602 42.2749 37.0552C38.3674 42.6985 31.9201 46.3223 25.0096 46.6152C14.5718 47.0579 5.38297 40.2398 2.50142 30.155C2.50052 30.1517 2.50055 30.1483 2.5015 30.1451C2.50244 30.1418 2.50427 30.1389 2.50678 30.1367C2.50928 30.1345 2.51236 30.133 2.51566 30.1324C2.51896 30.1319 2.52235 30.1323 2.52544 30.1336C5.3546 31.3196 8.18628 32.5069 11.0205 33.6952C11.1028 33.7298 11.0795 33.7995 11.0939 33.8582C11.5656 35.7856 12.6439 37.2122 14.3289 38.1382C16.2119 39.1728 18.6378 39.1113 20.501 37.9766C22.3765 36.8342 23.5781 34.7823 23.6035 32.5432C23.6049 32.424 23.6065 32.3038 23.6083 32.1827C23.6087 32.1537 23.6206 32.1309 23.644 32.1143L31.1748 26.6596C31.194 26.6457 31.2171 26.6384 31.2407 26.6389C36.5358 26.6624 40.4968 22.0226 39.7358 16.7654C38.7675 10.0799 30.6306 7.10254 25.6938 11.7762C23.9105 13.4641 22.9987 15.5823 22.9584 18.1308C22.958 18.1645 22.9474 18.1975 22.9282 18.2254L17.6517 25.9911C17.6366 26.0132 17.6158 26.0238 17.5892 26.0228C16.1838 25.9754 14.8994 26.341 13.736 27.1196C13.7204 27.1302 13.7039 27.1318 13.6865 27.1244L1.76371 22.1186C1.75153 22.1135 1.74126 22.1047 1.73436 22.0935C1.72746 22.0822 1.72428 22.069 1.72528 22.0558Z" fill="white"/>
<path d="M31.0355 23.7604C28.6055 23.6133 26.5297 21.8141 25.9505 19.4417C25.0796 15.8739 27.7471 12.3377 31.4294 12.3654C34.2609 12.3868 36.6223 14.5347 36.9729 17.3546C37.4128 20.8928 34.5683 23.9738 31.0355 23.7604ZM31.4095 22.3307C31.9649 22.3307 32.5147 22.2202 33.0278 22.0055C33.5408 21.7907 34.007 21.476 34.3997 21.0792C34.7923 20.6824 35.1038 20.2113 35.3163 19.6929C35.5288 19.1745 35.6382 18.6188 35.6382 18.0577C35.6382 17.4965 35.5288 16.9409 35.3163 16.4225C35.1038 15.904 34.7923 15.433 34.3997 15.0362C34.007 14.6394 33.5408 14.3247 33.0278 14.1099C32.5147 13.8952 31.9649 13.7846 31.4095 13.7846C30.288 13.7846 29.2125 14.2348 28.4194 15.0362C27.6264 15.8375 27.1809 16.9244 27.1809 18.0577C27.1809 18.6188 27.2903 19.1745 27.5028 19.6929C27.7153 20.2113 28.0268 20.6824 28.4194 21.0792C28.8121 21.476 29.2783 21.7907 29.7913 22.0055C30.3044 22.2202 30.8542 22.3307 31.4095 22.3307Z" fill="white"/>
<path d="M17.5753 28.7655C16.933 28.4993 16.2929 28.2247 15.6552 27.9415C15.6295 27.9305 15.6298 27.9201 15.6559 27.9104C19.6121 26.476 23.2409 30.5073 21.6317 34.3369C20.6689 36.6285 18.0591 37.8357 15.695 36.9807C14.5078 36.5516 13.6147 35.7486 13.0159 34.5717C13.0035 34.5473 13.0099 34.5402 13.0351 34.5503C13.9341 34.9205 14.8292 35.2914 15.7204 35.663C18.0467 36.6333 20.6208 34.9274 20.5824 32.3589C20.5632 31.0646 19.8756 29.9195 18.7591 29.2828C18.4214 29.0901 17.9719 28.9298 17.5753 28.7655Z" fill="white"/>
</g>
<defs>
<clipPath id="clip0_80_6205">
<rect width="48" height="48" fill="white"/>
</clipPath>
</defs>
</svg>
