<svg width="29" height="29" viewBox="0 0 29 29" fill="none" xmlns="http://www.w3.org/2000/svg">
<path d="M15.7083 6.04199V8.45866M15.7083 20.542V22.9587M15.7083 13.292V15.7087M2.41667 10.8753C3.37808 10.8753 4.30011 11.2572 4.97993 11.9371C5.65975 12.6169 6.04167 13.5389 6.04167 14.5003C6.04167 15.4617 5.65975 16.3838 4.97993 17.0636C4.30011 17.7434 3.37808 18.1253 2.41667 18.1253V20.542C2.41667 21.1829 2.67128 21.7976 3.1245 22.2508C3.57771 22.704 4.1924 22.9587 4.83334 22.9587H24.1667C24.8076 22.9587 25.4223 22.704 25.8755 22.2508C26.3287 21.7976 26.5833 21.1829 26.5833 20.542V18.1253C25.6219 18.1253 24.6999 17.7434 24.0201 17.0636C23.3403 16.3838 22.9583 15.4617 22.9583 14.5003C22.9583 13.5389 23.3403 12.6169 24.0201 11.9371C24.6999 11.2572 25.6219 10.8753 26.5833 10.8753V8.45866C26.5833 7.81772 26.3287 7.20303 25.8755 6.74982C25.4223 6.2966 24.8076 6.04199 24.1667 6.04199H4.83334C4.1924 6.04199 3.57771 6.2966 3.1245 6.74982C2.67128 7.20303 2.41667 7.81772 2.41667 8.45866V10.8753Z" stroke="white" stroke-width="3" stroke-linecap="round" stroke-linejoin="round"/>
</svg>
