<svg width="20" height="20" viewBox="0 0 20 20" fill="none" xmlns="http://www.w3.org/2000/svg">
<g clip-path="url(#clip0_120_2793)">
<path d="M10 19.375C15.1777 19.375 19.375 15.1777 19.375 10C19.375 4.82233 15.1777 0.625 10 0.625C4.82233 0.625 0.625 4.82233 0.625 10C0.625 15.1777 4.82233 19.375 10 19.375Z" fill="#ED4C5C"/>
<path d="M12.9062 12.1875L12.9375 10.5L11.25 10L12.9375 9.5L12.9062 7.8125L13.9375 9.15625L15.625 8.65625L14.5938 10L15.625 11.3437L13.9375 10.8438L12.9062 12.1875Z" fill="white"/>
<path d="M10.375 13.75C8.3125 13.75 6.65625 12.0625 6.65625 10C6.65625 7.9375 8.3125 6.25 10.375 6.25C11.1562 6.25 11.875 6.5 12.5 6.90625C11.6562 5.9375 10.4062 5.3125 9 5.3125C6.4375 5.3125 4.375 7.40625 4.375 10C4.375 12.5938 6.4375 14.6875 9 14.6875C10.4062 14.6875 11.6562 14.0625 12.5 13.0938C11.9062 13.5 11.1875 13.75 10.375 13.75Z" fill="white"/>
</g>
<defs>
<clipPath id="clip0_120_2793">
<rect width="20" height="20" fill="white"/>
</clipPath>
</defs>
</svg>
