<svg width="55" height="55" viewBox="0 0 55 55" fill="none" xmlns="http://www.w3.org/2000/svg">
<path d="M19.2042 27.5L24.7271 33.0458L35.7958 21.9542" stroke="white" stroke-width="2" stroke-linecap="round" stroke-linejoin="round"/>
<path d="M24.6354 5.61459C26.2167 4.2625 28.8062 4.2625 30.4104 5.61459L34.0312 8.73125C34.7187 9.32709 36.0021 9.80834 36.9187 9.80834H40.8146C43.2437 9.80834 45.2375 11.8021 45.2375 14.2313V18.1271C45.2375 19.0208 45.7187 20.3271 46.3146 21.0146L49.4312 24.6354C50.7833 26.2167 50.7833 28.8063 49.4312 30.4104L46.3146 34.0313C45.7187 34.7188 45.2375 36.0021 45.2375 36.9188V40.8146C45.2375 43.2438 43.2437 45.2375 40.8146 45.2375H36.9187C36.025 45.2375 34.7187 45.7188 34.0312 46.3146L30.4104 49.4313C28.8292 50.7833 26.2396 50.7833 24.6354 49.4313L21.0146 46.3146C20.3271 45.7188 19.0437 45.2375 18.1271 45.2375H14.1625C11.7333 45.2375 9.73958 43.2438 9.73958 40.8146V36.8958C9.73958 36.0021 9.25833 34.7188 8.68541 34.0313L5.59166 30.3875C4.2625 28.8063 4.2625 26.2396 5.59166 24.6583L8.68541 21.0146C9.25833 20.3271 9.73958 19.0438 9.73958 18.15V14.2083C9.73958 11.7792 11.7333 9.78542 14.1625 9.78542H18.1271C19.0208 9.78542 20.3271 9.30417 21.0146 8.70834L24.6354 5.61459Z" stroke="white" stroke-width="2" stroke-linecap="round" stroke-linejoin="round"/>
</svg>
