<svg width="55" height="55" viewBox="0 0 55 55" fill="none" xmlns="http://www.w3.org/2000/svg">
<path d="M20.625 43.5417C20.625 45.2604 20.1437 46.8875 19.2958 48.2625C17.7146 50.9208 14.8042 52.7083 11.4583 52.7083C8.1125 52.7083 5.20209 50.9208 3.62084 48.2625C2.77292 46.8875 2.29166 45.2604 2.29166 43.5417C2.29166 38.4771 6.39375 34.375 11.4583 34.375C16.5229 34.375 20.625 38.4771 20.625 43.5417Z" stroke="white" stroke-width="2" stroke-miterlimit="10" stroke-linecap="round" stroke-linejoin="round"/>
<path d="M7.88656 43.5406L10.1553 45.8093L15.0366 41.2948" stroke="white" stroke-width="2" stroke-linecap="round" stroke-linejoin="round"/>
<path d="M42 15.9822C41.4187 15.911 40.8131 15.8933 40.1834 15.8933H15.9619C15.2837 15.8933 14.6298 15.9289 14 16C14.3391 15.502 14.8235 15.0396 15.4048 14.6127L23.2768 8.81424C26.5952 6.39525 31.9723 6.39525 35.2907 8.81424L39.5294 11.9624C41.0796 13.083 41.9031 14.5059 42 15.9822Z" stroke="white" stroke-width="2" stroke-linecap="round" stroke-linejoin="round"/>
<path d="M50.4167 27.5V38.9583C50.4167 45.8333 45.8333 50.4167 38.9583 50.4167H17.4854C18.1958 49.8208 18.8146 49.0875 19.2958 48.2625C20.1437 46.8875 20.625 45.2604 20.625 43.5417C20.625 38.4771 16.5229 34.375 11.4583 34.375C8.70834 34.375 6.25625 35.5895 4.58334 37.4916V27.5C4.58334 21.2667 8.34167 16.9125 14.1854 16.1792C14.7812 16.0875 15.4 16.0417 16.0417 16.0417H38.9583C39.5542 16.0417 40.1271 16.0645 40.6771 16.1562C46.5896 16.8437 50.4167 21.2208 50.4167 27.5Z" stroke="white" stroke-width="2" stroke-linecap="round" stroke-linejoin="round"/>
<path d="M50.4167 28.6458H43.5417C41.0208 28.6458 38.9583 30.7083 38.9583 33.2292C38.9583 35.75 41.0208 37.8125 43.5417 37.8125H50.4167" stroke="white" stroke-width="2" stroke-linecap="round" stroke-linejoin="round"/>
</svg>
