<svg width="24" height="24" viewBox="0 0 24 24" fill="none" xmlns="http://www.w3.org/2000/svg">
<path d="M19.05 4.91006C18.1332 3.98399 17.0412 3.24973 15.8377 2.75011C14.6341 2.25049 13.3432 1.99552 12.04 2.00006C6.58005 2.00006 2.13005 6.45006 2.13005 11.9101C2.13005 13.6601 2.59005 15.3601 3.45005 16.8601L2.05005 22.0001L7.30005 20.6201C8.75005 21.4101 10.38 21.8301 12.04 21.8301C17.5 21.8301 21.95 17.3801 21.95 11.9201C21.95 9.27006 20.92 6.78006 19.05 4.91006ZM12.04 20.1501C10.56 20.1501 9.11005 19.7501 7.84005 19.0001L7.54005 18.8201L4.42005 19.6401L5.25005 16.6001L5.05005 16.2901C4.22779 14.977 3.79119 13.4593 3.79005 11.9101C3.79005 7.37006 7.49005 3.67006 12.03 3.67006C14.23 3.67006 16.3 4.53006 17.85 6.09006C18.6175 6.85402 19.2257 7.76272 19.6394 8.76348C20.0531 9.76425 20.2641 10.8372 20.26 11.9201C20.28 16.4601 16.58 20.1501 12.04 20.1501ZM16.56 13.9901C16.31 13.8701 15.09 13.2701 14.87 13.1801C14.64 13.1001 14.48 13.0601 14.31 13.3001C14.14 13.5501 13.67 14.1101 13.53 14.2701C13.39 14.4401 13.24 14.4601 12.99 14.3301C12.74 14.2101 11.94 13.9401 11 13.1001C10.26 12.4401 9.77005 11.6301 9.62005 11.3801C9.48005 11.1301 9.60005 11.0001 9.73005 10.8701C9.84005 10.7601 9.98005 10.5801 10.1 10.4401C10.22 10.3001 10.27 10.1901 10.35 10.0301C10.43 9.86006 10.39 9.72006 10.33 9.60006C10.27 9.48006 9.77005 8.26006 9.57005 7.76006C9.37005 7.28006 9.16005 7.34006 9.01005 7.33006H8.53005C8.36005 7.33006 8.10005 7.39006 7.87005 7.64006C7.65005 7.89006 7.01005 8.49006 7.01005 9.71006C7.01005 10.9301 7.90005 12.1101 8.02005 12.2701C8.14005 12.4401 9.77005 14.9401 12.25 16.0101C12.84 16.2701 13.3 16.4201 13.66 16.5301C14.25 16.7201 14.79 16.6901 15.22 16.6301C15.7 16.5601 16.69 16.0301 16.89 15.4501C17.1 14.8701 17.1 14.3801 17.03 14.2701C16.96 14.1601 16.81 14.1101 16.56 13.9901Z" fill="#FD295C"/>
</svg>
