<svg width="29" height="28" viewBox="0 0 29 28" fill="none" xmlns="http://www.w3.org/2000/svg">
<g clip-path="url(#clip0_27_416)">
<path d="M8.72956 3.63413C12.0839 1.68255 16.3848 1.51759 19.8918 3.16171C20.2968 3.38647 20.8439 3.48493 21.0683 3.93107C18.9275 3.64644 16.8636 4.581 15.0402 5.60324C14.6054 5.82279 14.2215 5.37153 13.8356 5.22558C12.1507 4.50195 10.3709 3.66938 8.48772 3.94165C8.54719 3.86604 8.6699 3.71142 8.72956 3.63413ZM2.98408 11.2227C3.54157 9.07622 4.65499 7.04932 6.26811 5.52084C7.01334 5.3224 7.72711 5.75796 8.35464 6.10752C9.52241 6.84532 10.4852 7.85181 11.5249 8.75113C9.48383 11.279 7.60597 13.9667 6.19955 16.905C5.53689 18.3699 4.83196 19.9772 5.20015 21.6179C4.73539 21.286 4.5023 20.7431 4.2094 20.2707C2.64365 17.5673 2.20715 14.2473 2.98383 11.2223L2.98408 11.2227ZM22.032 5.7174C22.4441 5.56455 22.9579 5.32053 23.3701 5.58744C26.9451 8.97063 28.02 14.6619 25.972 19.136C25.5389 20.0073 25.1479 20.9682 24.4009 21.6164C24.4798 21.1193 24.5781 20.6134 24.4764 20.111C24.1993 18.3246 23.3401 16.7051 22.4896 15.1347C21.229 12.8793 19.7193 10.7766 18.1115 8.75837C19.3108 7.62 20.5277 6.44147 22.032 5.71764L22.032 5.7174ZM7.9059 18.9744C9.8363 16.2604 12.1878 13.8401 14.8127 11.7933C17.0867 13.5886 19.1489 15.6578 20.9425 17.9363C21.7843 19.0587 22.6293 20.2251 23.0624 21.576C23.2553 22.1996 23.3254 23.0182 22.7574 23.4732C21.0268 24.9574 18.8753 25.9673 16.6133 26.2748C13.1486 26.8034 9.47705 25.76 6.82914 23.4537C6.43461 23.1218 6.34173 22.5508 6.4381 22.0678C6.64677 20.9277 7.27454 19.9248 7.9057 18.9744H7.9059ZM17.7712 31.1511C19.7191 29.7036 22.4299 29.4472 24.6548 30.3712C25.9487 30.9052 27.0007 31.9027 27.7759 33.0534C28.5264 34.4779 28.9174 36.0904 28.8611 37.7047C28.8296 39.8338 28.0529 42.0347 26.4293 43.4647C23.7325 45.8572 19.1067 45.6182 16.7502 42.8552C15.1091 40.9843 14.6514 38.3302 15.0248 35.9236C15.1617 34.8539 15.6192 33.8755 16.0699 32.9094C16.5959 32.2858 17.1044 31.6325 17.7708 31.1511M21.0706 31.4778C20.0011 31.6657 18.9123 32.1137 18.2511 33.0165C17.115 34.0774 16.6677 35.6567 16.6031 37.169C16.5767 38.9468 17.0325 40.8597 18.3546 42.1276C20.1395 43.9527 23.3535 44.0142 25.2382 42.3103C26.2605 41.4144 26.8743 40.1199 27.0741 38.7866C27.3704 36.995 27.0864 35.0486 26.0449 33.5346C25.7274 33.1552 25.3366 32.8443 25.0227 32.4612C23.9302 31.5724 22.4416 31.2896 21.0704 31.4777L21.0706 31.4778ZM-10.4402 30.1848C-9.80023 30.1779 -9.15845 30.1796 -8.51844 30.1761C-7.15429 32.0556 -5.65519 33.8333 -4.36111 35.7653C-3.02866 33.9122 -1.53299 32.1785 -0.307278 30.2534C0.364233 30.076 1.08145 30.2007 1.7704 30.1902C0.106371 32.5352 -1.66087 34.8046 -3.31949 37.1567C-2.73915 37.8207 -2.2621 38.5671 -1.76417 39.2927C-0.414021 41.1249 0.932392 42.9587 2.2791 44.7928C1.6268 44.7891 0.974654 44.7873 0.322359 44.7857C-1.20495 42.7235 -2.70927 40.6455 -4.28744 38.622C-4.72399 38.9083 -4.90814 39.4669 -5.264 39.8446C-5.75141 40.2942 -6.08815 40.8739 -6.49492 41.392C-7.31907 42.5269 -8.16583 43.6458 -8.98998 44.7822C-9.64577 44.7822 -10.3016 44.7857 -10.9573 44.7929C-9.38983 42.6956 -7.86251 40.5682 -6.30026 38.4672C-5.96721 38.0421 -5.8269 37.4537 -5.34292 37.1602C-5.88292 36.5315 -6.37053 35.8586 -6.81765 35.1614C-7.35937 34.4376 -7.95544 33.7561 -8.49913 33.0323C-8.96374 31.9732 -9.82122 31.1529 -10.4401 30.1849L-10.4402 30.1848Z" fill="#15CF74"/>
</g>
<defs>
<clipPath id="clip0_27_416">
<rect width="29" height="28" fill="white"/>
</clipPath>
</defs>
</svg>
